<?xml version="1.0" encoding="UTF-8"?>
<svg width="176px" height="134px" viewBox="0 0 176 134" xmlns="http://www.w3.org/2000/svg" xmlns:xlink="http://www.w3.org/1999/xlink" version="1.1">
 <!-- Generated by Pixelmator Pro 1.3.1 -->
 <path id="path" d="M133.3 67.3 C133 67.1 132.8 66.9 132.5 66.8 123 61.6 113 58.2 102.4 56.2 94.4 54.7 86.4 54 78.3 53.9 75.5 53.9 72.6 53.9 69.8 54 69.2 54 69.1 54.1 69.1 54.7 69.1 57.7 69 60.7 69 63.6 69 64.2 69.1 64.3 69.7 64.3 71.6 64.5 73.5 64.6 75.4 64.9 77.1 65.2 78.8 65.7 80.5 66.2 81.9 66.6 83.3 67.2 84.6 67.8 87.7 69.3 90.7 71.3 93.3 73.6 96.4 76.3 99.5 79.2 102.6 82 106.5 85.6 110.6 89.1 115.2 91.8 117.5 93.1 119.9 94.3 122.2 95.5 122.6 95.7 122.9 95.6 123.2 95.3 128.4 88.9 131.6 81.7 132.9 73.6 133.1 72.1 133.2 70.5 133.4 69 133.4 68.9 133.4 68.7 133.5 68.6 133.3 68.1 133.3 67.7 133.3 67.3 Z" fill="#000000" fill-opacity="1" stroke="none"/>
 <path id="path-1" d="M89.9 111.7 C90.6 111.6 91.3 111.6 92 111.5 102.1 110.7 110.9 106.8 118.5 100.1 119.1 99.6 119.7 99 120.3 98.4 120.7 98 120.7 97.6 120.1 97.4 113 94.1 106.8 89.4 101.1 84.1 97.9 81.1 94.7 78.2 91.4 75.3 89 73.2 86.3 71.4 83.4 70 81.2 69 78.9 68.1 76.5 67.7 74.9 67.4 73.4 67.2 71.8 67 71.2 66.9 70.6 66.9 70 66.8 69.3 66.8 69.2 66.9 69.2 67.6 69.6 73.2 70.4 78.6 71.7 84.1 73.3 90.7 75.7 97 79.1 102.9 80.7 105.7 82.5 108.4 84.6 110.8 85 111.3 85.5 111.6 86.1 111.5 86.4 111.5 86.7 111.6 87 111.6 87.9 111.7 88.9 111.7 89.9 111.7 Z" fill="#000000" fill-opacity="1" stroke="none"/>
 <path id="path-2" d="M43.4 68.2 C43.5 68.9 43.5 69.6 43.6 70.3 43.9 74.5 44.9 78.6 46.3 82.5 46.4 82.8 46.5 83 46.9 83 47.3 83 47.4 82.7 47.4 82.4 48.4 78.2 50.3 74.4 53.2 71.1 56 68 59.4 65.7 63.5 64.7 64.2 64.5 64.9 64.4 65.6 64.3 66 64.2 66.2 64 66.2 63.6 66.2 60.6 66.3 57.6 66.3 54.7 66.3 54.2 66.1 54 65.7 54 59.7 54.4 53.8 55.3 48.3 57.8 46.9 58.4 45.7 59.3 44.3 60.1 44 60.3 43.9 60.6 43.8 60.9 43.7 62.1 43.6 63.4 43.5 64.6 43.5 64.8 43.4 65 43.4 65.1 43.4 66.2 43.4 67.2 43.4 68.2 Z" fill="#000000" fill-opacity="1" stroke="none"/>
 <path id="path-3" d="M86.9 21.8 C86.5 21.8 86.2 21.9 85.8 21.9 85.1 21.9 84.6 22.1 84 22.5 81.3 24.2 79.1 26.3 77.2 28.8 75 31.7 73.4 34.9 72.1 38.3 71.9 38.8 72.2 39.2 72.7 39.1 74.5 38.9 76.2 38.7 78 38.3 82.6 37.4 87 35.7 91.3 33.9 94.8 32.4 98.3 30.9 101.8 29.6 103.8 28.8 105.9 28.3 108 27.7 108 27.7 108.1 27.7 108.1 27.7 108.4 27.6 108.7 27.6 108.7 27.2 108.7 26.9 108.5 26.7 108.2 26.6 105.8 25.4 103.3 24.4 100.7 23.7 97.2 22.7 93.7 22.1 90.1 22 90 22 89.8 22 89.7 21.9 88.9 21.8 87.9 21.8 86.9 21.8 Z" fill="#000000" fill-opacity="1" stroke="none"/>
 <path id="path-4" d="M78 51 C82.1 51.2 86.2 51.4 90.2 51.8 102.6 52.9 114.7 55.7 126.1 60.7 128.1 61.6 130 62.6 132 63.5 132.3 63.6 132.6 63.9 132.9 63.6 133.1 63.4 133.1 63.1 133.1 62.8 132.6 57.3 131.2 52.1 128.8 47.2 125.4 40.2 120.5 34.5 114.2 30 113.7 29.6 113.2 29.5 112.6 29.6 109.2 30 105.9 30.8 102.7 32.1 98.5 33.8 94.3 35.6 90.1 37.3 86.1 38.9 82 40.3 77.7 41.1 75.7 41.4 73.6 41.6 71.5 41.8 71.1 41.8 70.8 42 70.7 42.4 70.1 45 69.6 47.6 69.2 50.3 69.1 51 69.3 51.2 70 51.2 72.5 51.2 75 51.1 77.5 51.1 77.6 51.1 77.8 51.1 77.9 51.1 78 51.1 78 51 78 51 Z" fill="#000000" fill-opacity="1" stroke="none"/>
 <path id="path-5" d="M49.4 87.8 C49.2 88.7 49.5 89.5 50 90.2 56.8 100.9 66.4 107.8 78.8 110.6 79.1 110.7 79.3 110.8 79.6 110.7 79.8 110.7 80.1 110.6 80.2 110.5 80.3 110.4 80.2 110 80.1 109.9 79.3 108.7 78.5 107.6 77.7 106.4 73.9 100.5 71.3 94 69.4 87.3 67.9 81.7 66.9 76.1 66.4 70.3 66.3 69.4 66.3 68.5 66.2 67.6 66.2 67 66 66.8 65.3 66.9 61.1 67.6 57.6 69.6 54.9 72.8 51.5 76.7 49.6 81.3 49.2 86.5 49.4 87.1 49.4 87.5 49.4 87.8 Z" fill="#000000" fill-opacity="1" stroke="none"/>
 <path id="path-6" d="M44.8 55.6 C44.8 56.1 45.2 56.3 45.6 56.1 46.1 55.9 46.6 55.6 47.1 55.4 50.8 53.7 54.7 52.7 58.7 52.1 61 51.8 63.4 51.6 65.7 51.3 66.4 51.2 66.5 51.2 66.6 50.5 67.1 47.9 67.5 45.3 68 42.7 68.1 42 68 41.8 67.3 41.8 63.8 41.5 60.6 40.4 57.9 38.2 57.3 37.7 56.8 37.2 56.3 36.6 55.8 36 55.6 36 55.1 36.6 51.4 40.6 48.5 45.2 46.5 50.3 45.8 52 45.3 53.7 44.8 55.5 44.8 55.4 44.8 55.6 44.8 55.6 Z" fill="#000000" fill-opacity="1" stroke="none"/>
 <path id="path-7" d="M68.3 39.2 C69 39.2 69.1 39.1 69.3 38.5 70.9 33.8 73.1 29.5 76.3 25.8 76.7 25.3 77.2 24.8 77.6 24.3 77.8 24.1 78 23.8 77.8 23.5 77.6 23.2 77.3 23.2 77 23.3 72.6 24.5 68.4 26.3 64.5 28.7 62.3 30.1 60.3 31.6 58.3 33.3 57.7 33.8 57.7 34 58.2 34.6 60.1 36.9 62.6 38.1 65.4 38.7 66.4 39 67.4 39.1 68.3 39.2 Z" fill="#000000" fill-opacity="1" stroke="none"/>
</svg>
